<?xml version="1.0" encoding="UTF-8" standalone="no"?><svg xmlns="http://www.w3.org/2000/svg" xmlns:xlink="http://www.w3.org/1999/xlink" contentScriptType="application/ecmascript" contentStyleType="text/css" height="304px" preserveAspectRatio="none" style="width:713px;height:304px;background:#FFFFFF;" version="1.1" viewBox="0 0 713 304" width="713px" zoomAndPan="magnify"><defs><filter height="300%" id="fw9kaqyhb7xhl" width="300%" x="-1" y="-1"><feGaussianBlur result="blurOut" stdDeviation="2.0"/><feColorMatrix in="blurOut" result="blurOut2" type="matrix" values="0 0 0 0 0 0 0 0 0 0 0 0 0 0 0 0 0 0 .4 0"/><feOffset dx="4.0" dy="4.0" in="blurOut2" result="blurOut3"/><feBlend in="SourceGraphic" in2="blurOut3" mode="normal"/></filter></defs><g><rect fill="#FEFECE" filter="url(#fw9kaqyhb7xhl)" height="36.4883" rx="12.5" ry="12.5" style="stroke:#A80036;stroke-width:1.5;" width="59" x="10" y="132.9766"/><text fill="#000000" font-family="sans-serif" font-size="14" lengthAdjust="spacing" textLength="39" x="20" y="156.5117">Mysql</text><rect fill="#FEFECE" filter="url(#fw9kaqyhb7xhl)" height="36.4883" rx="12.5" ry="12.5" style="stroke:#A80036;stroke-width:1.5;" width="83" x="119" y="132.9766"/><text fill="#000000" font-family="sans-serif" font-size="14" lengthAdjust="spacing" textLength="63" x="129" y="156.5117">Database</text><rect fill="#FEFECE" filter="url(#fw9kaqyhb7xhl)" height="36.4883" rx="12.5" ry="12.5" style="stroke:#A80036;stroke-width:1.5;" width="58" x="252" y="132.9766"/><text fill="#000000" font-family="sans-serif" font-size="14" lengthAdjust="spacing" textLength="38" x="262" y="156.5117">Table</text><rect fill="#FEFECE" filter="url(#fw9kaqyhb7xhl)" height="36.4883" rx="12.5" ry="12.5" style="stroke:#A80036;stroke-width:1.5;" width="65" x="360" y="20"/><text fill="#000000" font-family="sans-serif" font-size="14" lengthAdjust="spacing" textLength="45" x="370" y="43.5352">Colum</text><path d="M310,151.2207 L320,151.2207 C335,151.2207 335,38.2441 350,38.2441 L360,38.2441 " fill="none" style="stroke:#A80036;stroke-width:1.0;"/><rect fill="#FEFECE" filter="url(#fw9kaqyhb7xhl)" height="36.4883" rx="12.5" ry="12.5" style="stroke:#A80036;stroke-width:1.5;" width="48" x="360" y="161.2207"/><text fill="#000000" font-family="sans-serif" font-size="14" lengthAdjust="spacing" textLength="28" x="370" y="184.7559">Line</text><rect fill="#FEFECE" filter="url(#fw9kaqyhb7xhl)" height="36.4883" rx="12.5" ry="12.5" style="stroke:#A80036;stroke-width:1.5;" width="48" x="458" y="104.7324"/><text fill="#000000" font-family="sans-serif" font-size="14" lengthAdjust="spacing" textLength="28" x="468" y="128.2676">主键</text><rect fill="#FEFECE" filter="url(#fw9kaqyhb7xhl)" height="36.4883" rx="12.5" ry="12.5" style="stroke:#A80036;stroke-width:1.5;" width="104" x="556" y="76.4883"/><text fill="#000000" font-family="sans-serif" font-size="14" lengthAdjust="spacing" textLength="84" x="566" y="100.0234">自增整数类型</text><path d="M506,122.9766 L516,122.9766 C531,122.9766 531,94.7324 546,94.7324 L556,94.7324 " fill="none" style="stroke:#A80036;stroke-width:1.0;"/><rect fill="#FEFECE" filter="url(#fw9kaqyhb7xhl)" height="36.4883" rx="12.5" ry="12.5" style="stroke:#A80036;stroke-width:1.5;" width="138" x="556" y="132.9766"/><text fill="#000000" font-family="sans-serif" font-size="14" lengthAdjust="spacing" textLength="118" x="566" y="156.5117">全局唯一GUID类型</text><path d="M506,122.9766 L516,122.9766 C531,122.9766 531,151.2207 546,151.2207 L556,151.2207 " fill="none" style="stroke:#A80036;stroke-width:1.0;"/><path d="M408,179.4648 L418,179.4648 C433,179.4648 433,122.9766 448,122.9766 L458,122.9766 " fill="none" style="stroke:#A80036;stroke-width:1.0;"/><rect fill="#FEFECE" filter="url(#fw9kaqyhb7xhl)" height="36.4883" rx="12.5" ry="12.5" style="stroke:#A80036;stroke-width:1.5;" width="76" x="458" y="189.4648"/><text fill="#000000" font-family="sans-serif" font-size="14" lengthAdjust="spacing" textLength="56" x="468" y="213">联合主键</text><path d="M408,179.4648 L418,179.4648 C433,179.4648 433,207.709 448,207.709 L458,207.709 " fill="none" style="stroke:#A80036;stroke-width:1.0;"/><rect fill="#FEFECE" filter="url(#fw9kaqyhb7xhl)" height="36.4883" rx="12.5" ry="12.5" style="stroke:#A80036;stroke-width:1.5;" width="48" x="458" y="245.9531"/><text fill="#000000" font-family="sans-serif" font-size="14" lengthAdjust="spacing" textLength="28" x="468" y="269.4883">外键</text><path d="M408,179.4648 L418,179.4648 C433,179.4648 433,264.1973 448,264.1973 L458,264.1973 " fill="none" style="stroke:#A80036;stroke-width:1.0;"/><path d="M310,151.2207 L320,151.2207 C335,151.2207 335,179.4648 350,179.4648 L360,179.4648 " fill="none" style="stroke:#A80036;stroke-width:1.0;"/><path d="M202,151.2207 L212,151.2207 C227,151.2207 227,151.2207 242,151.2207 L252,151.2207 " fill="none" style="stroke:#A80036;stroke-width:1.0;"/><path d="M69,151.2207 L79,151.2207 C94,151.2207 94,151.2207 109,151.2207 L119,151.2207 " fill="none" style="stroke:#A80036;stroke-width:1.0;"/><!--MD5=[88a278ef96fd2262605c09f2c8f71bfc]
@startmindmap
* Mysql
** Database
*** Table
**** Colum
**** Line
***** 主键
****** 自增整数类型
****** 全局唯一GUID类型
***** 联合主键
***** 外键
@endmindmap

PlantUML version 1.2021.9(Sun Jul 25 18:13:56 CST 2021)
(GPL source distribution)
Java Runtime: Java(TM) SE Runtime Environment
JVM: Java HotSpot(TM) 64-Bit Server VM
Default Encoding: UTF-8
Language: zh
Country: CN
--></g></svg>